<svg width="204" height="104" viewBox="0 0 204 104" fill="none" xmlns="http://www.w3.org/2000/svg">
<g filter="url(#filter0_d_2004_5605)">
<path d="M20 28C20 21.3726 25.3726 16 32 16H172C178.627 16 184 21.3726 184 28V68C184 74.6274 178.627 80 172 80H32C25.3726 80 20 74.6274 20 68V28Z" fill="#26262B"/>
<path d="M32 16.5H172C178.351 16.5 183.5 21.6487 183.5 28V68C183.5 74.3513 178.351 79.5 172 79.5H32C25.6487 79.5 20.5 74.3513 20.5 68V28C20.5 21.6487 25.6487 16.5 32 16.5Z" stroke="#303038"/>
<path d="M35.5649 46.2929L41.8578 40L43.9791 42.1213L39.1004 47L44.0502 51.9498L41.9288 54.0711L35.5649 47.7071C35.1743 47.3166 35.1743 46.6834 35.5649 46.2929Z" fill="white" fill-opacity="0.4"/>
<path d="M58.0711 54.0711L64.435 47.7071C64.8256 47.3166 64.8256 46.6834 64.435 46.2929L58.1421 40L56.0208 42.1213L60.8995 47L55.9497 51.9498L58.0711 54.0711Z" fill="white" fill-opacity="0.4"/>
<path d="M53.3299 41.1648C53.5443 40.3646 53.0694 39.5421 52.2692 39.3277C51.469 39.1133 50.6465 39.5881 50.4321 40.3883L47.115 52.7677C46.9006 53.5679 47.3755 54.3905 48.1757 54.6049C48.9759 54.8193 49.7984 54.3444 50.0128 53.5442L53.3299 41.1648Z" fill="#C568E5"/>
<path d="M85.4602 44.3068C85.3864 44.0057 85.2699 43.7415 85.1108 43.5142C84.9517 43.2812 84.7528 43.0852 84.5142 42.9261C84.2813 42.7614 84.0085 42.6392 83.696 42.5597C83.3892 42.4744 83.0511 42.4318 82.6818 42.4318C81.8864 42.4318 81.2074 42.6222 80.6449 43.0028C80.0881 43.3835 79.6619 43.9318 79.3665 44.6477C79.0767 45.3636 78.9318 46.2273 78.9318 47.2386C78.9318 48.2614 79.071 49.1364 79.3494 49.8636C79.6278 50.5909 80.0426 51.1477 80.5938 51.5341C81.1449 51.9205 81.8295 52.1136 82.6477 52.1136C83.3693 52.1136 83.9688 52.0085 84.446 51.7983C84.929 51.5881 85.2898 51.2898 85.5284 50.9034C85.767 50.517 85.8864 50.0625 85.8864 49.5398L86.7045 49.625H82.7159V46.25H90.4545V48.6705C90.4545 50.2614 90.1165 51.6222 89.4403 52.7528C88.7699 53.8778 87.8438 54.7415 86.6619 55.3438C85.4858 55.9403 84.1364 56.2386 82.6136 56.2386C80.9148 56.2386 79.4233 55.8778 78.1392 55.1562C76.8551 54.4347 75.8523 53.4062 75.1307 52.071C74.4148 50.7358 74.0568 49.1477 74.0568 47.3068C74.0568 45.8636 74.2756 44.5852 74.7131 43.4716C75.1563 42.358 75.7699 41.4176 76.554 40.6506C77.3381 39.8778 78.2443 39.2955 79.2727 38.9034C80.3011 38.5057 81.4034 38.3068 82.5795 38.3068C83.6136 38.3068 84.5739 38.4545 85.4602 38.75C86.3523 39.0398 87.1392 39.4545 87.821 39.9943C88.5085 40.5284 89.0625 41.1619 89.483 41.8949C89.9034 42.6278 90.1591 43.4318 90.25 44.3068H85.4602ZM93.5526 56V42.9091H98.2571V56H93.5526ZM95.9048 41.5455C95.2685 41.5455 94.723 41.3352 94.2685 40.9148C93.8139 40.4943 93.5866 39.9886 93.5866 39.3977C93.5866 38.8068 93.8139 38.3011 94.2685 37.8807C94.723 37.4602 95.2685 37.25 95.9048 37.25C96.5469 37.25 97.0923 37.4602 97.5412 37.8807C97.9957 38.3011 98.223 38.8068 98.223 39.3977C98.223 39.9886 97.9957 40.4943 97.5412 40.9148C97.0923 41.3352 96.5469 41.5455 95.9048 41.5455ZM108.461 42.9091V46.3182H99.8359V42.9091H108.461ZM101.506 39.7727H106.211V51.7898C106.211 51.9716 106.242 52.125 106.305 52.25C106.367 52.3693 106.464 52.4602 106.594 52.5227C106.725 52.5795 106.893 52.608 107.097 52.608C107.239 52.608 107.404 52.5909 107.592 52.5568C107.785 52.5227 107.927 52.4943 108.018 52.4716L108.7 55.7784C108.489 55.8409 108.188 55.9176 107.796 56.0085C107.41 56.0994 106.95 56.1591 106.415 56.1875C105.336 56.2443 104.43 56.1335 103.697 55.8551C102.964 55.571 102.413 55.125 102.043 54.517C101.674 53.9091 101.495 53.1477 101.506 52.233V39.7727Z" fill="#C568E5"/>
<path d="M110.594 56V38.5455H118.128C119.423 38.5455 120.557 38.7812 121.528 39.2528C122.5 39.7244 123.256 40.4034 123.795 41.2898C124.335 42.1761 124.605 43.2386 124.605 44.4773C124.605 45.7273 124.327 46.7812 123.77 47.6392C123.219 48.4972 122.443 49.1449 121.443 49.5824C120.449 50.0199 119.287 50.2386 117.957 50.2386H113.457V46.5568H117.003C117.56 46.5568 118.034 46.4886 118.426 46.3523C118.824 46.2102 119.128 45.9858 119.338 45.679C119.554 45.3722 119.662 44.9716 119.662 44.4773C119.662 43.9773 119.554 43.571 119.338 43.2585C119.128 42.9403 118.824 42.7074 118.426 42.5597C118.034 42.4062 117.56 42.3295 117.003 42.3295H115.332V56H110.594ZM120.821 47.9886L125.185 56H120.037L115.776 47.9886H120.821ZM130.341 56.2045C129.506 56.2045 128.767 56.0682 128.125 55.7955C127.489 55.517 126.989 55.0966 126.625 54.5341C126.261 53.9716 126.08 53.2557 126.08 52.3864C126.08 51.6705 126.202 51.0597 126.446 50.554C126.69 50.0426 127.031 49.625 127.469 49.3011C127.906 48.9773 128.415 48.7301 128.994 48.5597C129.58 48.3892 130.21 48.2784 130.886 48.2273C131.619 48.1705 132.207 48.1023 132.651 48.0227C133.099 47.9375 133.423 47.821 133.622 47.6733C133.821 47.5199 133.92 47.3182 133.92 47.0682V47.0341C133.92 46.6932 133.79 46.4318 133.528 46.25C133.267 46.0682 132.932 45.9773 132.523 45.9773C132.074 45.9773 131.707 46.0767 131.423 46.2756C131.145 46.4687 130.977 46.767 130.92 47.1705H126.591C126.648 46.375 126.901 45.642 127.349 44.9716C127.804 44.2955 128.466 43.7557 129.335 43.3523C130.205 42.9432 131.29 42.7386 132.591 42.7386C133.528 42.7386 134.369 42.8494 135.114 43.071C135.858 43.2869 136.491 43.5909 137.014 43.983C137.537 44.3693 137.935 44.8239 138.207 45.3466C138.486 45.8636 138.625 46.4261 138.625 47.0341V56H134.227V54.1591H134.125C133.864 54.6477 133.545 55.0426 133.17 55.3438C132.801 55.6449 132.378 55.8636 131.901 56C131.429 56.1364 130.909 56.2045 130.341 56.2045ZM131.875 53.2386C132.233 53.2386 132.568 53.1648 132.881 53.017C133.199 52.8693 133.457 52.6562 133.656 52.3778C133.855 52.0994 133.955 51.7614 133.955 51.3636V50.2727C133.83 50.3239 133.696 50.3722 133.554 50.4176C133.418 50.4631 133.27 50.5057 133.111 50.5455C132.957 50.5852 132.793 50.6222 132.616 50.6562C132.446 50.6903 132.267 50.7216 132.08 50.75C131.716 50.8068 131.418 50.9006 131.185 51.0312C130.957 51.1562 130.787 51.3125 130.673 51.5C130.565 51.6818 130.511 51.8864 130.511 52.1136C130.511 52.4773 130.639 52.7557 130.895 52.9489C131.151 53.142 131.477 53.2386 131.875 53.2386ZM145.577 48.6364V56H140.873V42.9091H145.339V45.3977H145.475C145.759 44.5682 146.259 43.9176 146.975 43.446C147.697 42.9744 148.538 42.7386 149.498 42.7386C150.424 42.7386 151.228 42.9517 151.91 43.3778C152.597 43.7983 153.129 44.3778 153.504 45.1165C153.884 45.8551 154.072 46.6989 154.066 47.6477V56H149.362V48.6364C149.367 47.9886 149.202 47.4801 148.867 47.1108C148.538 46.7415 148.077 46.5568 147.487 46.5568C147.1 46.5568 146.762 46.642 146.472 46.8125C146.188 46.9773 145.969 47.2159 145.816 47.5284C145.663 47.8352 145.583 48.2045 145.577 48.6364ZM160.616 52.8977L160.65 47.3068H161.263L164.434 42.9091H169.718L164.4 49.7614H163.07L160.616 52.8977ZM156.388 56V38.5455H161.093V56H156.388ZM164.468 56L161.468 50.8182L164.536 47.4773L169.854 56H164.468Z" fill="white"/>
</g>
<defs>
<filter id="filter0_d_2004_5605" x="0" y="0" width="204" height="104" filterUnits="userSpaceOnUse" color-interpolation-filters="sRGB">
<feFlood flood-opacity="0" result="BackgroundImageFix"/>
<feColorMatrix in="SourceAlpha" type="matrix" values="0 0 0 0 0 0 0 0 0 0 0 0 0 0 0 0 0 0 127 0" result="hardAlpha"/>
<feOffset dy="4"/>
<feGaussianBlur stdDeviation="10"/>
<feComposite in2="hardAlpha" operator="out"/>
<feColorMatrix type="matrix" values="0 0 0 0 0 0 0 0 0 0 0 0 0 0 0 0 0 0 0.25 0"/>
<feBlend mode="normal" in2="BackgroundImageFix" result="effect1_dropShadow_2004_5605"/>
<feBlend mode="normal" in="SourceGraphic" in2="effect1_dropShadow_2004_5605" result="shape"/>
</filter>
</defs>
</svg>
