<svg width="334" height="247" viewBox="0 0 334 247" fill="none" xmlns="http://www.w3.org/2000/svg">
<g filter="url(#filter0_d_2022_4160)">
<path d="M20 24C20 19.5817 23.5817 16 28 16H306C310.418 16 314 19.5817 314 24V215C314 219.418 310.418 223 306 223H28C23.5817 223 20 219.418 20 215V24Z" fill="#26262B"/>
<path d="M28 16.5H306C310.142 16.5 313.5 19.8579 313.5 24V215C313.5 219.142 310.142 222.5 306 222.5H28C23.8579 222.5 20.5 219.142 20.5 215V24L20.5098 23.6143C20.7105 19.6514 23.9872 16.5 28 16.5Z" stroke="#303038"/>
<path d="M35.5649 46.2929L41.8578 40L43.9791 42.1213L39.1004 47L44.0502 51.9498L41.9288 54.0711L35.5649 47.7071C35.1743 47.3166 35.1743 46.6834 35.5649 46.2929Z" fill="white" fill-opacity="0.4"/>
<path d="M58.0711 54.0711L64.435 47.7071C64.8256 47.3166 64.8256 46.6834 64.435 46.2929L58.1421 40L56.0208 42.1213L60.8995 47L55.9497 51.9498L58.0711 54.0711Z" fill="white" fill-opacity="0.4"/>
<path d="M53.3299 41.1648C53.5443 40.3646 53.0694 39.5421 52.2692 39.3277C51.469 39.1133 50.6465 39.5881 50.4321 40.3883L47.115 52.7677C46.9006 53.5679 47.3755 54.3905 48.1757 54.6049C48.9759 54.8193 49.7984 54.3444 50.0128 53.5442L53.3299 41.1648Z" fill="#C568E5"/>
<path d="M85.4602 44.3068C85.3864 44.0057 85.2699 43.7415 85.1108 43.5142C84.9517 43.2812 84.7528 43.0852 84.5142 42.9261C84.2813 42.7614 84.0085 42.6392 83.696 42.5597C83.3892 42.4744 83.0511 42.4318 82.6818 42.4318C81.8864 42.4318 81.2074 42.6222 80.6449 43.0028C80.0881 43.3835 79.6619 43.9318 79.3665 44.6477C79.0767 45.3636 78.9318 46.2273 78.9318 47.2386C78.9318 48.2614 79.071 49.1364 79.3494 49.8636C79.6278 50.5909 80.0426 51.1477 80.5938 51.5341C81.1449 51.9205 81.8295 52.1136 82.6477 52.1136C83.3693 52.1136 83.9688 52.0085 84.446 51.7983C84.929 51.5881 85.2898 51.2898 85.5284 50.9034C85.767 50.517 85.8864 50.0625 85.8864 49.5398L86.7045 49.625H82.7159V46.25H90.4545V48.6705C90.4545 50.2614 90.1165 51.6222 89.4403 52.7528C88.7699 53.8778 87.8438 54.7415 86.6619 55.3438C85.4858 55.9403 84.1364 56.2386 82.6136 56.2386C80.9148 56.2386 79.4233 55.8778 78.1392 55.1562C76.8551 54.4347 75.8523 53.4062 75.1307 52.071C74.4148 50.7358 74.0568 49.1477 74.0568 47.3068C74.0568 45.8636 74.2756 44.5852 74.7131 43.4716C75.1563 42.358 75.7699 41.4176 76.554 40.6506C77.3381 39.8778 78.2443 39.2955 79.2727 38.9034C80.3011 38.5057 81.4034 38.3068 82.5795 38.3068C83.6136 38.3068 84.5739 38.4545 85.4602 38.75C86.3523 39.0398 87.1392 39.4545 87.821 39.9943C88.5085 40.5284 89.0625 41.1619 89.483 41.8949C89.9034 42.6278 90.1591 43.4318 90.25 44.3068H85.4602ZM93.5526 56V42.9091H98.2571V56H93.5526ZM95.9048 41.5455C95.2685 41.5455 94.723 41.3352 94.2685 40.9148C93.8139 40.4943 93.5866 39.9886 93.5866 39.3977C93.5866 38.8068 93.8139 38.3011 94.2685 37.8807C94.723 37.4602 95.2685 37.25 95.9048 37.25C96.5469 37.25 97.0923 37.4602 97.5412 37.8807C97.9957 38.3011 98.223 38.8068 98.223 39.3977C98.223 39.9886 97.9957 40.4943 97.5412 40.9148C97.0923 41.3352 96.5469 41.5455 95.9048 41.5455ZM108.461 42.9091V46.3182H99.8359V42.9091H108.461ZM101.506 39.7727H106.211V51.7898C106.211 51.9716 106.242 52.125 106.305 52.25C106.367 52.3693 106.464 52.4602 106.594 52.5227C106.725 52.5795 106.893 52.608 107.097 52.608C107.239 52.608 107.404 52.5909 107.592 52.5568C107.785 52.5227 107.927 52.4943 108.018 52.4716L108.7 55.7784C108.489 55.8409 108.188 55.9176 107.796 56.0085C107.41 56.0994 106.95 56.1591 106.415 56.1875C105.336 56.2443 104.43 56.1335 103.697 55.8551C102.964 55.571 102.413 55.125 102.043 54.517C101.674 53.9091 101.495 53.1477 101.506 52.233V39.7727Z" fill="#C568E5"/>
<path d="M110.594 56V38.5455H118.128C119.423 38.5455 120.557 38.7812 121.528 39.2528C122.5 39.7244 123.256 40.4034 123.795 41.2898C124.335 42.1761 124.605 43.2386 124.605 44.4773C124.605 45.7273 124.327 46.7812 123.77 47.6392C123.219 48.4972 122.443 49.1449 121.443 49.5824C120.449 50.0199 119.287 50.2386 117.957 50.2386H113.457V46.5568H117.003C117.56 46.5568 118.034 46.4886 118.426 46.3523C118.824 46.2102 119.128 45.9858 119.338 45.679C119.554 45.3722 119.662 44.9716 119.662 44.4773C119.662 43.9773 119.554 43.571 119.338 43.2585C119.128 42.9403 118.824 42.7074 118.426 42.5597C118.034 42.4062 117.56 42.3295 117.003 42.3295H115.332V56H110.594ZM120.821 47.9886L125.185 56H120.037L115.776 47.9886H120.821ZM130.341 56.2045C129.506 56.2045 128.767 56.0682 128.125 55.7955C127.489 55.517 126.989 55.0966 126.625 54.5341C126.261 53.9716 126.08 53.2557 126.08 52.3864C126.08 51.6705 126.202 51.0597 126.446 50.554C126.69 50.0426 127.031 49.625 127.469 49.3011C127.906 48.9773 128.415 48.7301 128.994 48.5597C129.58 48.3892 130.21 48.2784 130.886 48.2273C131.619 48.1705 132.207 48.1023 132.651 48.0227C133.099 47.9375 133.423 47.821 133.622 47.6733C133.821 47.5199 133.92 47.3182 133.92 47.0682V47.0341C133.92 46.6932 133.79 46.4318 133.528 46.25C133.267 46.0682 132.932 45.9773 132.523 45.9773C132.074 45.9773 131.707 46.0767 131.423 46.2756C131.145 46.4687 130.977 46.767 130.92 47.1705H126.591C126.648 46.375 126.901 45.642 127.349 44.9716C127.804 44.2955 128.466 43.7557 129.335 43.3523C130.205 42.9432 131.29 42.7386 132.591 42.7386C133.528 42.7386 134.369 42.8494 135.114 43.071C135.858 43.2869 136.491 43.5909 137.014 43.983C137.537 44.3693 137.935 44.8239 138.207 45.3466C138.486 45.8636 138.625 46.4261 138.625 47.0341V56H134.227V54.1591H134.125C133.864 54.6477 133.545 55.0426 133.17 55.3438C132.801 55.6449 132.378 55.8636 131.901 56C131.429 56.1364 130.909 56.2045 130.341 56.2045ZM131.875 53.2386C132.233 53.2386 132.568 53.1648 132.881 53.017C133.199 52.8693 133.457 52.6562 133.656 52.3778C133.855 52.0994 133.955 51.7614 133.955 51.3636V50.2727C133.83 50.3239 133.696 50.3722 133.554 50.4176C133.418 50.4631 133.27 50.5057 133.111 50.5455C132.957 50.5852 132.793 50.6222 132.616 50.6562C132.446 50.6903 132.267 50.7216 132.08 50.75C131.716 50.8068 131.418 50.9006 131.185 51.0312C130.957 51.1562 130.787 51.3125 130.673 51.5C130.565 51.6818 130.511 51.8864 130.511 52.1136C130.511 52.4773 130.639 52.7557 130.895 52.9489C131.151 53.142 131.477 53.2386 131.875 53.2386ZM145.577 48.6364V56H140.873V42.9091H145.339V45.3977H145.475C145.759 44.5682 146.259 43.9176 146.975 43.446C147.697 42.9744 148.538 42.7386 149.498 42.7386C150.424 42.7386 151.228 42.9517 151.91 43.3778C152.597 43.7983 153.129 44.3778 153.504 45.1165C153.884 45.8551 154.072 46.6989 154.066 47.6477V56H149.362V48.6364C149.367 47.9886 149.202 47.4801 148.867 47.1108C148.538 46.7415 148.077 46.5568 147.487 46.5568C147.1 46.5568 146.762 46.642 146.472 46.8125C146.188 46.9773 145.969 47.2159 145.816 47.5284C145.663 47.8352 145.583 48.2045 145.577 48.6364ZM160.616 52.8977L160.65 47.3068H161.263L164.434 42.9091H169.718L164.4 49.7614H163.07L160.616 52.8977ZM156.388 56V38.5455H161.093V56H156.388ZM164.468 56L161.468 50.8182L164.536 47.4773L169.854 56H164.468Z" fill="white"/>
<path d="M41.6125 114V98.305H46.278C47.3387 98.305 48.256 98.5057 49.03 98.907C49.8183 99.3083 50.4275 99.8745 50.8575 100.605C51.2875 101.336 51.5025 102.204 51.5025 103.207V109.076C51.5025 110.065 51.2875 110.933 50.8575 111.678C50.4275 112.409 49.8183 112.982 49.03 113.398C48.256 113.799 47.3387 114 46.278 114H41.6125ZM44.3 111.527H46.278C47.052 111.527 47.6683 111.312 48.127 110.882C48.5857 110.438 48.815 109.836 48.815 109.076V103.207C48.815 102.462 48.5857 101.874 48.127 101.444C47.6683 101 47.052 100.777 46.278 100.777H44.3V111.527ZM54.5256 114V111.549H58.6536V104.604H55.0631V102.175H61.2336V111.549H64.8886V114H54.5256ZM59.7286 100.197C59.1839 100.197 58.7539 100.061 58.4386 99.7885C58.1233 99.5018 57.9656 99.122 57.9656 98.649C57.9656 98.176 58.1233 97.8033 58.4386 97.531C58.7539 97.2443 59.1839 97.101 59.7286 97.101C60.2733 97.101 60.7033 97.2443 61.0186 97.531C61.3339 97.8033 61.4916 98.176 61.4916 98.649C61.4916 99.122 61.3339 99.5018 61.0186 99.7885C60.7033 100.061 60.2733 100.197 59.7286 100.197ZM71.7817 114.194C70.8787 114.194 70.0904 114.05 69.4167 113.763C68.743 113.477 68.2127 113.083 67.8257 112.581C67.453 112.065 67.2524 111.463 67.2237 110.775H69.9112C69.9399 111.148 70.119 111.449 70.4487 111.678C70.7927 111.907 71.237 112.022 71.7817 112.022H72.7277C73.387 112.022 73.8815 111.893 74.2112 111.635C74.5409 111.377 74.7057 111.026 74.7057 110.581C74.7057 110.166 74.5552 109.843 74.2542 109.614C73.9675 109.37 73.516 109.213 72.8997 109.141L71.4377 108.926C70.0904 108.74 69.1014 108.381 68.4707 107.851C67.84 107.321 67.5247 106.525 67.5247 105.464C67.5247 104.361 67.8974 103.508 68.6427 102.906C69.388 102.29 70.4845 101.981 71.9322 101.981H72.7492C74.0679 101.981 75.1214 102.275 75.9097 102.863C76.698 103.451 77.1209 104.239 77.1782 105.228H74.4907C74.4477 104.913 74.2685 104.655 73.9532 104.454C73.6522 104.253 73.2509 104.153 72.7492 104.153H71.9322C71.3159 104.153 70.8644 104.268 70.5777 104.497C70.3054 104.712 70.1692 105.034 70.1692 105.464C70.1692 105.866 70.291 106.167 70.5347 106.367C70.7784 106.554 71.1725 106.69 71.7172 106.776L73.2437 106.991C74.6484 107.192 75.6804 107.571 76.3397 108.13C77.0134 108.675 77.3502 109.485 77.3502 110.56C77.3502 111.707 76.956 112.602 76.1677 113.247C75.3937 113.878 74.247 114.194 72.7277 114.194H71.7817ZM85.1893 114.215C84.186 114.215 83.3045 114.029 82.5448 113.656C81.7995 113.269 81.219 112.731 80.8033 112.043C80.3876 111.341 80.1798 110.517 80.1798 109.571V106.604C80.1798 105.644 80.3876 104.819 80.8033 104.131C81.219 103.443 81.7995 102.913 82.5448 102.54C83.3045 102.153 84.186 101.96 85.1893 101.96C86.68 101.96 87.8696 102.347 88.7583 103.121C89.647 103.881 90.1128 104.92 90.1558 106.238H87.4683C87.4253 105.622 87.2031 105.149 86.8018 104.819C86.4148 104.475 85.8773 104.303 85.1893 104.303C84.4726 104.303 83.9065 104.504 83.4908 104.905C83.0751 105.292 82.8673 105.851 82.8673 106.582V109.571C82.8673 110.302 83.0751 110.868 83.4908 111.269C83.9065 111.671 84.4726 111.871 85.1893 111.871C85.8773 111.871 86.4148 111.707 86.8018 111.377C87.2031 111.033 87.4253 110.553 87.4683 109.936H90.1558C90.1128 111.255 89.647 112.301 88.7583 113.075C87.8696 113.835 86.68 114.215 85.1893 114.215ZM98.0164 114.194C97.0131 114.194 96.1387 114.007 95.3934 113.634C94.6624 113.247 94.0891 112.71 93.6734 112.022C93.2721 111.32 93.0714 110.495 93.0714 109.549V106.625C93.0714 105.679 93.2721 104.862 93.6734 104.174C94.0891 103.472 94.6624 102.935 95.3934 102.562C96.1387 102.175 97.0131 101.981 98.0164 101.981C99.0341 101.981 99.9084 102.175 100.639 102.562C101.37 102.935 101.937 103.472 102.338 104.174C102.754 104.862 102.961 105.672 102.961 106.604V109.549C102.961 110.495 102.754 111.32 102.338 112.022C101.937 112.71 101.37 113.247 100.639 113.634C99.9084 114.007 99.0341 114.194 98.0164 114.194ZM98.0164 111.85C98.7331 111.85 99.2849 111.656 99.6719 111.269C100.073 110.868 100.274 110.295 100.274 109.549V106.625C100.274 105.866 100.073 105.292 99.6719 104.905C99.2849 104.518 98.7331 104.325 98.0164 104.325C97.3141 104.325 96.7622 104.518 96.3609 104.905C95.9596 105.292 95.7589 105.866 95.7589 106.625V109.549C95.7589 110.295 95.9596 110.868 96.3609 111.269C96.7622 111.656 97.3141 111.85 98.0164 111.85ZM109.188 114L105.297 102.175H108.049L110.306 109.356C110.435 109.786 110.557 110.23 110.672 110.689C110.801 111.148 110.894 111.513 110.951 111.785C111.023 111.513 111.116 111.148 111.231 110.689C111.345 110.23 111.46 109.793 111.575 109.377L113.789 102.175H116.52L112.65 114H109.188ZM123.821 114.215C122.818 114.215 121.943 114.022 121.198 113.634C120.453 113.247 119.872 112.71 119.457 112.022C119.055 111.32 118.855 110.503 118.855 109.571V106.604C118.855 105.672 119.055 104.862 119.457 104.174C119.872 103.472 120.453 102.927 121.198 102.54C121.943 102.153 122.818 101.96 123.821 101.96C124.81 101.96 125.67 102.153 126.401 102.54C127.146 102.927 127.72 103.472 128.121 104.174C128.537 104.862 128.745 105.672 128.745 106.604V108.732H121.456V109.571C121.456 110.402 121.657 111.033 122.058 111.463C122.459 111.879 123.054 112.086 123.843 112.086C124.445 112.086 124.932 111.986 125.305 111.785C125.677 111.57 125.914 111.262 126.014 110.861H128.659C128.458 111.879 127.913 112.696 127.025 113.312C126.15 113.914 125.082 114.215 123.821 114.215ZM126.143 107.227V106.582C126.143 105.765 125.95 105.142 125.563 104.712C125.176 104.268 124.595 104.045 123.821 104.045C123.047 104.045 122.459 104.268 122.058 104.712C121.657 105.156 121.456 105.787 121.456 106.604V107.055L126.337 107.012L126.143 107.227ZM132.262 114V102.175H134.799V104.432H135.466L134.67 105.808C134.67 104.533 134.957 103.572 135.53 102.927C136.104 102.282 136.949 101.96 138.067 101.96C139.343 101.96 140.346 102.354 141.077 103.143C141.808 103.931 142.174 105.02 142.174 106.41V107.27H139.357V106.604C139.357 105.844 139.157 105.257 138.755 104.841C138.368 104.425 137.831 104.217 137.143 104.217C136.44 104.217 135.896 104.425 135.509 104.841C135.136 105.257 134.95 105.844 134.95 106.604V114H132.262ZM146.358 117.44L148.078 110.753H151.518L148.723 117.44H146.358ZM170.55 114V98.305H175.517C176.563 98.305 177.466 98.4985 178.226 98.8855C179 99.2725 179.602 99.8172 180.032 100.519C180.462 101.207 180.677 102.024 180.677 102.97C180.677 104.002 180.411 104.913 179.881 105.701C179.365 106.489 178.663 107.048 177.774 107.378L180.892 114H177.882L175.151 107.765H173.238V114H170.55ZM173.238 105.4H175.517C176.276 105.4 176.871 105.192 177.301 104.776C177.731 104.361 177.946 103.787 177.946 103.056C177.946 102.311 177.731 101.731 177.301 101.315C176.871 100.885 176.276 100.67 175.517 100.67H173.238V105.4ZM186.946 114.215C185.728 114.215 184.767 113.893 184.065 113.247C183.363 112.602 183.012 111.735 183.012 110.646C183.012 109.485 183.399 108.589 184.173 107.958C184.947 107.328 186.043 107.012 187.462 107.012H190.408V106.002C190.408 105.429 190.221 104.984 189.849 104.669C189.476 104.339 188.967 104.174 188.322 104.174C187.734 104.174 187.247 104.303 186.86 104.561C186.473 104.819 186.244 105.171 186.172 105.615H183.549C183.678 104.497 184.18 103.608 185.054 102.949C185.928 102.29 187.046 101.96 188.408 101.96C189.856 101.96 190.995 102.325 191.827 103.056C192.672 103.773 193.095 104.748 193.095 105.98V114H190.494V111.936H190.064L190.494 111.355C190.494 112.23 190.171 112.925 189.526 113.441C188.881 113.957 188.021 114.215 186.946 114.215ZM187.828 112.194C188.587 112.194 189.204 112 189.677 111.613C190.164 111.226 190.408 110.725 190.408 110.108V108.668H187.505C186.96 108.668 186.523 108.826 186.194 109.141C185.864 109.456 185.699 109.872 185.699 110.388C185.699 110.947 185.885 111.391 186.258 111.721C186.645 112.036 187.168 112.194 187.828 112.194ZM196.355 114V102.175H198.978V104.432H199.709L198.978 105.056C198.978 104.081 199.257 103.322 199.816 102.777C200.39 102.232 201.171 101.96 202.16 101.96C203.321 101.96 204.245 102.347 204.933 103.121C205.636 103.895 205.987 104.934 205.987 106.238V114H203.299V106.518C203.299 105.801 203.113 105.249 202.74 104.862C202.368 104.475 201.844 104.282 201.171 104.282C200.511 104.282 199.988 104.483 199.601 104.884C199.229 105.285 199.042 105.859 199.042 106.604V114H196.355ZM209.311 114V98.305H211.998V106.819H213.869L216.75 102.175H219.76L216.191 107.894L219.824 114H216.75L213.869 109.098H211.998V114H209.311ZM238.384 114.215C237.094 114.215 236.09 113.857 235.374 113.14C234.657 112.423 234.299 111.434 234.299 110.173V108.173C234.299 107.213 234.535 106.425 235.008 105.808C235.495 105.192 236.183 104.812 237.072 104.669L236.793 105.249C236.348 104.633 236.004 104.031 235.761 103.443C235.531 102.856 235.417 102.275 235.417 101.702C235.417 100.985 235.589 100.362 235.933 99.8315C236.277 99.2868 236.757 98.864 237.373 98.563C237.989 98.2477 238.713 98.09 239.545 98.09C240.405 98.09 241.15 98.2548 241.781 98.5845C242.426 98.9142 242.92 99.3728 243.264 99.9605C243.622 100.534 243.802 101.215 243.802 102.003H241.308C241.308 101.659 241.236 101.358 241.093 101.1C240.949 100.842 240.741 100.648 240.469 100.519C240.211 100.376 239.903 100.304 239.545 100.304C239.201 100.304 238.9 100.369 238.642 100.498C238.384 100.627 238.183 100.813 238.04 101.057C237.911 101.301 237.846 101.587 237.846 101.917C237.846 102.261 237.932 102.641 238.104 103.056C238.29 103.472 238.541 103.895 238.857 104.325L241.824 108.517L243.006 106.26H245.608L243.307 110.624L245.715 114H243.028L242.017 112.581C241.014 113.67 239.803 114.215 238.384 114.215ZM238.599 112C239.014 112 239.401 111.886 239.76 111.656C240.118 111.427 240.426 111.112 240.684 110.71L237.739 106.582C237.438 106.697 237.215 106.891 237.072 107.163C236.929 107.421 236.857 107.758 236.857 108.173V110.173C236.857 110.746 237.008 111.198 237.309 111.527C237.624 111.843 238.054 112 238.599 112ZM41.6555 154V138.305H46.88C47.9263 138.305 48.8365 138.506 49.6105 138.907C50.3988 139.308 51.008 139.874 51.438 140.605C51.868 141.322 52.083 142.168 52.083 143.143C52.083 144.103 51.8608 144.948 51.4165 145.679C50.9865 146.41 50.3845 146.977 49.6105 147.378C48.8365 147.779 47.9263 147.98 46.88 147.98H44.343V154H41.6555ZM44.343 145.55H46.88C47.6253 145.55 48.2202 145.335 48.6645 144.905C49.1232 144.461 49.3525 143.873 49.3525 143.143C49.3525 142.397 49.1232 141.809 48.6645 141.379C48.2202 140.949 47.6253 140.734 46.88 140.734H44.343V145.55ZM54.9126 154V142.175H57.4496V144.432H58.1161L57.3206 145.808C57.3206 144.533 57.6073 143.572 58.1806 142.927C58.7539 142.282 59.5996 141.96 60.7176 141.96C61.9933 141.96 62.9966 142.354 63.7276 143.143C64.4586 143.931 64.8241 145.02 64.8241 146.41V147.27H62.0076V146.604C62.0076 145.844 61.8069 145.257 61.4056 144.841C61.0186 144.425 60.4811 144.217 59.7931 144.217C59.0908 144.217 58.5461 144.425 58.1591 144.841C57.7864 145.257 57.6001 145.844 57.6001 146.604V154H54.9126ZM72.2547 154.215C71.2514 154.215 70.377 154.022 69.6317 153.634C68.8864 153.247 68.3059 152.71 67.8902 152.022C67.4889 151.32 67.2882 150.503 67.2882 149.571V146.604C67.2882 145.672 67.4889 144.862 67.8902 144.174C68.3059 143.472 68.8864 142.927 69.6317 142.54C70.377 142.153 71.2514 141.96 72.2547 141.96C73.2437 141.96 74.1037 142.153 74.8347 142.54C75.58 142.927 76.1534 143.472 76.5547 144.174C76.9704 144.862 77.1782 145.672 77.1782 146.604V148.732H69.8897V149.571C69.8897 150.402 70.0904 151.033 70.4917 151.463C70.893 151.879 71.4879 152.086 72.2762 152.086C72.8782 152.086 73.3655 151.986 73.7382 151.785C74.1109 151.57 74.3474 151.262 74.4477 150.861H77.0922C76.8915 151.879 76.3469 152.696 75.4582 153.312C74.5839 153.914 73.516 154.215 72.2547 154.215ZM74.5767 147.227V146.582C74.5767 145.765 74.3832 145.142 73.9962 144.712C73.6092 144.268 73.0287 144.045 72.2547 144.045C71.4807 144.045 70.893 144.268 70.4917 144.712C70.0904 145.156 69.8897 145.787 69.8897 146.604V147.055L74.7702 147.012L74.5767 147.227ZM80.3303 157.87V142.175H82.9533V144.432H83.5553L82.9533 145.056C82.9533 144.096 83.24 143.343 83.8133 142.798C84.3866 142.239 85.1606 141.96 86.1353 141.96C87.325 141.96 88.2781 142.368 88.9948 143.185C89.7115 144.002 90.0698 145.099 90.0698 146.475V149.678C90.0698 150.596 89.905 151.398 89.5753 152.086C89.26 152.76 88.8085 153.283 88.2208 153.656C87.6331 154.029 86.938 154.215 86.1353 154.215C85.1606 154.215 84.3866 153.943 83.8133 153.398C83.24 152.839 82.9533 152.079 82.9533 151.119L83.5553 151.742H82.9318L83.0178 154.559V157.87H80.3303ZM85.1893 151.893C85.8773 151.893 86.4148 151.692 86.8018 151.291C87.1888 150.89 87.3823 150.316 87.3823 149.571V146.604C87.3823 145.859 87.1888 145.285 86.8018 144.884C86.4148 144.483 85.8773 144.282 85.1893 144.282C84.5156 144.282 83.9853 144.49 83.5983 144.905C83.2113 145.307 83.0178 145.873 83.0178 146.604V149.571C83.0178 150.302 83.2113 150.875 83.5983 151.291C83.9853 151.692 84.5156 151.893 85.1893 151.893ZM106.694 154L104.888 142.175H107.124L108.113 149.42C108.17 149.836 108.221 150.295 108.264 150.796C108.321 151.298 108.364 151.714 108.393 152.043C108.436 151.714 108.493 151.298 108.565 150.796C108.636 150.295 108.701 149.836 108.758 149.42L109.876 142.175H111.962L113.058 149.42C113.115 149.836 113.18 150.302 113.252 150.818C113.323 151.32 113.381 151.735 113.424 152.065C113.452 151.721 113.495 151.298 113.553 150.796C113.624 150.28 113.682 149.822 113.725 149.42L114.778 142.175H116.928L115.079 154H112.306L111.274 146.711C111.216 146.31 111.152 145.866 111.08 145.378C111.008 144.877 110.951 144.468 110.908 144.153C110.865 144.468 110.808 144.877 110.736 145.378C110.679 145.866 110.614 146.31 110.543 146.711L109.468 154H106.694ZM118.984 154V151.549H123.112V144.604H119.521V142.175H125.692V151.549H129.347V154H118.984ZM124.187 140.197C123.642 140.197 123.212 140.061 122.897 139.788C122.581 139.502 122.424 139.122 122.424 138.649C122.424 138.176 122.581 137.803 122.897 137.531C123.212 137.244 123.642 137.101 124.187 137.101C124.731 137.101 125.161 137.244 125.477 137.531C125.792 137.803 125.95 138.176 125.95 138.649C125.95 139.122 125.792 139.502 125.477 139.788C125.161 140.061 124.731 140.197 124.187 140.197ZM137.981 154C136.849 154 135.96 153.685 135.315 153.054C134.685 152.423 134.369 151.556 134.369 150.452V144.604H131.166V142.175H134.369V138.842H137.078V142.175H141.615V144.604H137.078V150.452C137.078 151.198 137.444 151.57 138.175 151.57H141.4V154H137.981ZM144.788 154V138.305H147.476V142.175L147.411 144.432H148.142L147.411 145.056C147.411 144.081 147.691 143.322 148.25 142.777C148.823 142.232 149.604 141.96 150.593 141.96C151.754 141.96 152.679 142.347 153.367 143.121C154.069 143.895 154.42 144.934 154.42 146.238V154H151.733V146.518C151.733 145.801 151.546 145.249 151.174 144.862C150.801 144.475 150.278 144.282 149.604 144.282C148.945 144.282 148.422 144.483 148.035 144.884C147.662 145.285 147.476 145.859 147.476 146.604V154H144.788ZM175.452 154.215C174.449 154.215 173.567 154.029 172.808 153.656C172.062 153.269 171.482 152.731 171.066 152.043C170.665 151.341 170.464 150.517 170.464 149.571V142.734C170.464 141.774 170.665 140.949 171.066 140.261C171.482 139.573 172.062 139.043 172.808 138.67C173.567 138.283 174.449 138.09 175.452 138.09C176.47 138.09 177.344 138.283 178.075 138.67C178.82 139.043 179.401 139.573 179.817 140.261C180.232 140.949 180.44 141.774 180.44 142.734H177.731C177.731 141.989 177.53 141.422 177.129 141.035C176.742 140.648 176.183 140.455 175.452 140.455C174.721 140.455 174.155 140.648 173.754 141.035C173.352 141.422 173.152 141.981 173.152 142.712V149.571C173.152 150.302 173.352 150.868 173.754 151.269C174.155 151.671 174.721 151.871 175.452 151.871C176.183 151.871 176.742 151.671 177.129 151.269C177.53 150.868 177.731 150.302 177.731 149.571V147.98H175.065V145.658H180.44V149.571C180.44 150.517 180.232 151.341 179.817 152.043C179.401 152.731 178.82 153.269 178.075 153.656C177.344 154.029 176.47 154.215 175.452 154.215ZM183.442 154V151.549H187.57V144.604H183.979V142.175H190.15V151.549H193.805V154H183.442ZM188.645 140.197C188.1 140.197 187.67 140.061 187.355 139.788C187.039 139.502 186.882 139.122 186.882 138.649C186.882 138.176 187.039 137.803 187.355 137.531C187.67 137.244 188.1 137.101 188.645 137.101C189.189 137.101 189.619 137.244 189.935 137.531C190.25 137.803 190.408 138.176 190.408 138.649C190.408 139.122 190.25 139.502 189.935 139.788C189.619 140.061 189.189 140.197 188.645 140.197ZM202.439 154C201.307 154 200.418 153.685 199.773 153.054C199.143 152.423 198.827 151.556 198.827 150.452V144.604H195.624V142.175H198.827V138.842H201.536V142.175H206.073V144.604H201.536V150.452C201.536 151.198 201.902 151.57 202.633 151.57H205.858V154H202.439ZM209.246 154V138.305H211.934V144.604H216.148V138.305H218.835V154H216.148V147.098H211.934V154H209.246ZM226.932 154.215C225.427 154.215 224.245 153.799 223.385 152.968C222.525 152.122 222.095 150.976 222.095 149.528V142.175H224.782V149.506C224.782 150.266 224.969 150.854 225.341 151.269C225.714 151.671 226.244 151.871 226.932 151.871C227.606 151.871 228.129 151.671 228.502 151.269C228.889 150.854 229.082 150.266 229.082 149.506V142.175H231.77V149.528C231.77 150.976 231.333 152.122 230.458 152.968C229.584 153.799 228.409 154.215 226.932 154.215ZM240.835 154.215C239.86 154.215 239.086 153.943 238.513 153.398C237.939 152.839 237.653 152.079 237.653 151.119L238.255 151.742H237.653V154H235.03V138.305H237.717V141.616L237.631 144.432H238.255L237.653 145.056C237.653 144.096 237.939 143.343 238.513 142.798C239.086 142.239 239.86 141.96 240.835 141.96C242.024 141.96 242.977 142.368 243.694 143.185C244.411 144.002 244.769 145.106 244.769 146.496V149.7C244.769 151.076 244.411 152.172 243.694 152.989C242.977 153.806 242.024 154.215 240.835 154.215ZM239.889 151.893C240.577 151.893 241.114 151.692 241.501 151.291C241.888 150.89 242.082 150.316 242.082 149.571V146.604C242.082 145.859 241.888 145.285 241.501 144.884C241.114 144.483 240.577 144.282 239.889 144.282C239.215 144.282 238.685 144.49 238.298 144.905C237.911 145.307 237.717 145.873 237.717 146.604V149.571C237.717 150.302 237.911 150.875 238.298 151.291C238.685 151.692 239.215 151.893 239.889 151.893ZM41.634 194V178.305H46.6005C47.6468 178.305 48.5498 178.498 49.3095 178.885C50.0835 179.272 50.6855 179.817 51.1155 180.519C51.5455 181.207 51.7605 182.024 51.7605 182.97C51.7605 184.002 51.4953 184.913 50.965 185.701C50.449 186.489 49.7467 187.048 48.858 187.378L51.9755 194H48.9655L46.235 187.765H44.3215V194H41.634ZM44.3215 185.4H46.6005C47.3602 185.4 47.955 185.192 48.385 184.776C48.815 184.361 49.03 183.787 49.03 183.056C49.03 182.311 48.815 181.731 48.385 181.315C47.955 180.885 47.3602 180.67 46.6005 180.67H44.3215V185.4ZM59.3631 194.215C58.3598 194.215 57.4854 194.022 56.7401 193.634C55.9948 193.247 55.4143 192.71 54.9986 192.022C54.5973 191.32 54.3966 190.503 54.3966 189.571V186.604C54.3966 185.672 54.5973 184.862 54.9986 184.174C55.4143 183.472 55.9948 182.927 56.7401 182.54C57.4854 182.153 58.3598 181.96 59.3631 181.96C60.3521 181.96 61.2121 182.153 61.9431 182.54C62.6884 182.927 63.2618 183.472 63.6631 184.174C64.0788 184.862 64.2866 185.672 64.2866 186.604V188.732H56.9981V189.571C56.9981 190.402 57.1988 191.033 57.6001 191.463C58.0014 191.879 58.5963 192.086 59.3846 192.086C59.9866 192.086 60.4739 191.986 60.8466 191.785C61.2193 191.57 61.4558 191.262 61.5561 190.861H64.2006C63.9999 191.879 63.4553 192.696 62.5666 193.312C61.6923 193.914 60.6244 194.215 59.3631 194.215ZM61.6851 187.227V186.582C61.6851 185.765 61.4916 185.142 61.1046 184.712C60.7176 184.268 60.1371 184.045 59.3631 184.045C58.5891 184.045 58.0014 184.268 57.6001 184.712C57.1988 185.156 56.9981 185.787 56.9981 186.604V187.055L61.8786 187.012L61.6851 187.227ZM67.4387 197.87V182.175H70.0617V184.432H70.6637L70.0617 185.056C70.0617 184.096 70.3484 183.343 70.9217 182.798C71.495 182.239 72.269 181.96 73.2437 181.96C74.4334 181.96 75.3865 182.368 76.1032 183.185C76.8199 184.002 77.1782 185.099 77.1782 186.475V189.678C77.1782 190.596 77.0134 191.398 76.6837 192.086C76.3684 192.76 75.9169 193.283 75.3292 193.656C74.7415 194.029 74.0464 194.215 73.2437 194.215C72.269 194.215 71.495 193.943 70.9217 193.398C70.3484 192.839 70.0617 192.079 70.0617 191.119L70.6637 191.742H70.0402L70.1262 194.559V197.87H67.4387ZM72.2977 191.893C72.9857 191.893 73.5232 191.692 73.9102 191.291C74.2972 190.89 74.4907 190.316 74.4907 189.571V186.604C74.4907 185.859 74.2972 185.285 73.9102 184.884C73.5232 184.483 72.9857 184.282 72.2977 184.282C71.624 184.282 71.0937 184.49 70.7067 184.905C70.3197 185.307 70.1262 185.873 70.1262 186.604V189.571C70.1262 190.302 70.3197 190.875 70.7067 191.291C71.0937 191.692 71.624 191.893 72.2977 191.893ZM85.1248 194.194C84.1215 194.194 83.2471 194.007 82.5018 193.634C81.7708 193.247 81.1975 192.71 80.7818 192.022C80.3805 191.32 80.1798 190.495 80.1798 189.549V186.625C80.1798 185.679 80.3805 184.862 80.7818 184.174C81.1975 183.472 81.7708 182.935 82.5018 182.562C83.2471 182.175 84.1215 181.981 85.1248 181.981C86.1425 181.981 87.0168 182.175 87.7478 182.562C88.4788 182.935 89.045 183.472 89.4463 184.174C89.862 184.862 90.0698 185.672 90.0698 186.604V189.549C90.0698 190.495 89.862 191.32 89.4463 192.022C89.045 192.71 88.4788 193.247 87.7478 193.634C87.0168 194.007 86.1425 194.194 85.1248 194.194ZM85.1248 191.85C85.8415 191.85 86.3933 191.656 86.7803 191.269C87.1816 190.868 87.3823 190.295 87.3823 189.549V186.625C87.3823 185.866 87.1816 185.292 86.7803 184.905C86.3933 184.518 85.8415 184.325 85.1248 184.325C84.4225 184.325 83.8706 184.518 83.4693 184.905C83.068 185.292 82.8673 185.866 82.8673 186.625V189.549C82.8673 190.295 83.068 190.868 83.4693 191.269C83.8706 191.656 84.4225 191.85 85.1248 191.85ZM97.5649 194.194C96.6619 194.194 95.8736 194.05 95.1999 193.763C94.5262 193.477 93.9959 193.083 93.6089 192.581C93.2362 192.065 93.0356 191.463 93.0069 190.775H95.6944C95.7231 191.148 95.9022 191.449 96.2319 191.678C96.5759 191.907 97.0202 192.022 97.5649 192.022H98.5109C99.1702 192.022 99.6647 191.893 99.9944 191.635C100.324 191.377 100.489 191.026 100.489 190.581C100.489 190.166 100.338 189.843 100.037 189.614C99.7507 189.37 99.2992 189.213 98.6829 189.141L97.2209 188.926C95.8736 188.74 94.8846 188.381 94.2539 187.851C93.6232 187.321 93.3079 186.525 93.3079 185.464C93.3079 184.361 93.6806 183.508 94.4259 182.906C95.1712 182.29 96.2677 181.981 97.7154 181.981H98.5324C99.8511 181.981 100.905 182.275 101.693 182.863C102.481 183.451 102.904 184.239 102.961 185.228H100.274C100.231 184.913 100.052 184.655 99.7364 184.454C99.4354 184.253 99.0341 184.153 98.5324 184.153H97.7154C97.0991 184.153 96.6476 184.268 96.3609 184.497C96.0886 184.712 95.9524 185.034 95.9524 185.464C95.9524 185.866 96.0742 186.167 96.3179 186.367C96.5616 186.554 96.9557 186.69 97.5004 186.776L99.0269 186.991C100.432 187.192 101.464 187.571 102.123 188.13C102.797 188.675 103.133 189.485 103.133 190.56C103.133 191.707 102.739 192.602 101.951 193.247C101.177 193.878 100.03 194.194 98.5109 194.194H97.5649ZM110.908 194.215C110.292 194.215 109.797 194.036 109.425 193.677C109.066 193.319 108.887 192.832 108.887 192.215C108.887 191.599 109.066 191.112 109.425 190.753C109.797 190.381 110.292 190.194 110.908 190.194C111.524 190.194 112.012 190.381 112.37 190.753C112.743 191.112 112.929 191.599 112.929 192.215C112.929 192.832 112.743 193.319 112.37 193.677C112.012 194.036 111.524 194.215 110.908 194.215Z" fill="white"/>
</g>
<defs>
<filter id="filter0_d_2022_4160" x="0" y="0" width="334" height="247" filterUnits="userSpaceOnUse" color-interpolation-filters="sRGB">
<feFlood flood-opacity="0" result="BackgroundImageFix"/>
<feColorMatrix in="SourceAlpha" type="matrix" values="0 0 0 0 0 0 0 0 0 0 0 0 0 0 0 0 0 0 127 0" result="hardAlpha"/>
<feOffset dy="4"/>
<feGaussianBlur stdDeviation="10"/>
<feComposite in2="hardAlpha" operator="out"/>
<feColorMatrix type="matrix" values="0 0 0 0 0 0 0 0 0 0 0 0 0 0 0 0 0 0 0.25 0"/>
<feBlend mode="normal" in2="BackgroundImageFix" result="effect1_dropShadow_2022_4160"/>
<feBlend mode="normal" in="SourceGraphic" in2="effect1_dropShadow_2022_4160" result="shape"/>
</filter>
</defs>
</svg>
